<svg xmlns="http://www.w3.org/2000/svg" xmlns:xlink="http://www.w3.org/1999/xlink" width="500" zoomAndPan="magnify" viewBox="0 0 375 374.999991" height="500" preserveAspectRatio="xMidYMid meet" version="1.0"><defs><g/><clipPath id="d047f674ea"><path d="M 131.453125 101.347656 L 218 101.347656 L 218 198.097656 L 131.453125 198.097656 Z M 131.453125 101.347656 " clip-rule="nonzero"/></clipPath><clipPath id="ac1768b6d6"><path d="M 153 103 L 243.203125 103 L 243.203125 196 L 153 196 Z M 153 103 " clip-rule="nonzero"/></clipPath></defs><rect x="-37.5" width="450" fill="#ffffff" y="-37.499999" height="449.999989" fill-opacity="1"/><rect x="-37.5" width="450" fill="#ffffff" y="-37.499999" height="449.999989" fill-opacity="1"/><rect x="-37.5" width="450" fill="#001d1e" y="-37.499999" height="449.999989" fill-opacity="1"/><g clip-path="url(#d047f674ea)"><path fill="#5ce1e6" d="M 139.601562 185.660156 L 157.75 133.910156 C 157.75 133.910156 160.164062 127.484375 163.347656 120.65625 C 164.519531 121.035156 165.785156 121.203125 167.089844 121.105469 C 169.792969 120.902344 172.164062 119.617188 173.804688 117.699219 C 175.445312 115.78125 176.363281 113.234375 176.164062 110.511719 C 175.964844 107.789062 174.683594 105.402344 172.78125 103.75 C 170.875 102.097656 168.34375 101.175781 165.636719 101.375 C 162.933594 101.578125 160.5625 102.863281 158.921875 104.78125 C 157.28125 106.699219 156.363281 109.246094 156.5625 111.96875 C 156.683594 113.617188 157.199219 115.136719 158.007812 116.449219 C 145.570312 137.953125 133.738281 178.898438 133.738281 178.898438 C 133.738281 178.898438 124.867188 197.660156 142.199219 197.320312 C 148.976562 197.183594 152.117188 198.210938 167.582031 186.464844 C 175.710938 180.292969 201.773438 164.71875 201.773438 164.71875 L 210.074219 181.507812 C 211.964844 187.007812 214.226562 193.238281 198.125 188.496094 C 198.132812 188.160156 198.128906 187.820312 198.101562 187.476562 C 197.902344 184.753906 196.625 182.367188 194.71875 180.714844 C 192.8125 179.0625 190.28125 178.140625 187.578125 178.34375 C 184.871094 178.542969 182.503906 179.832031 180.859375 181.746094 C 179.21875 183.664062 178.300781 186.210938 178.503906 188.9375 C 178.703125 191.660156 179.980469 194.042969 181.886719 195.695312 C 183.789062 197.351562 186.320312 198.273438 189.027344 198.070312 C 191.628906 197.875 193.917969 196.679688 195.550781 194.882812 C 215.597656 201.691406 223.453125 191.085938 212.644531 170.875 C 206.140625 158.71875 189.488281 121.125 189.488281 121.125 L 186.925781 129.207031 L 198.335938 157.347656 L 158.441406 183.855469 C 155.28125 186.457031 136.257812 194.628906 139.601562 185.65625 Z M 185.710938 191.226562 C 184.945312 190.5625 184.429688 189.601562 184.347656 188.5 C 184.269531 187.402344 184.636719 186.375 185.300781 185.601562 C 185.960938 184.828125 186.917969 184.308594 188.007812 184.230469 C 189.101562 184.148438 190.121094 184.519531 190.890625 185.1875 C 191.65625 185.851562 192.171875 186.816406 192.253906 187.914062 C 192.332031 189.011719 191.964844 190.039062 191.300781 190.8125 C 190.640625 191.585938 189.683594 192.105469 188.59375 192.183594 C 187.5 192.265625 186.480469 191.894531 185.710938 191.226562 Z M 169.363281 113.84375 C 168.703125 114.617188 167.746094 115.136719 166.652344 115.21875 C 165.5625 115.300781 164.542969 114.929688 163.773438 114.261719 C 163.007812 113.59375 162.492188 112.632812 162.410156 111.535156 C 162.328125 110.433594 162.699219 109.40625 163.359375 108.636719 C 164.023438 107.863281 164.980469 107.34375 166.070312 107.261719 C 167.164062 107.179688 168.183594 107.550781 168.949219 108.21875 C 169.71875 108.886719 170.234375 109.847656 170.3125 110.945312 C 170.394531 112.046875 170.027344 113.074219 169.363281 113.84375 Z M 169.363281 113.84375 " fill-opacity="1" fill-rule="evenodd"/></g><g clip-path="url(#ac1768b6d6)"><path fill="#d9d9d9" d="M 178.351562 113.339844 L 163.71875 153.328125 C 163.324219 153.3125 162.925781 153.316406 162.523438 153.347656 C 159.816406 153.546875 157.449219 154.835938 155.804688 156.75 C 154.164062 158.667969 153.25 161.214844 153.449219 163.941406 C 153.648438 166.664062 154.925781 169.046875 156.832031 170.699219 C 158.734375 172.355469 161.265625 173.277344 163.972656 173.074219 C 166.679688 172.875 169.046875 171.585938 170.691406 169.667969 C 172.332031 167.753906 173.246094 165.203125 173.046875 162.480469 C 172.847656 159.757812 171.570312 157.371094 169.664062 155.71875 C 169.578125 155.644531 169.492188 155.574219 169.40625 155.503906 L 180.347656 124.699219 C 187.277344 105.503906 198.828125 113.375 201.480469 117.824219 C 209.597656 131.4375 221.789062 158.382812 227.832031 173.605469 C 228.21875 174.578125 228.546875 175.523438 228.824219 176.4375 C 227.710938 177.023438 226.726562 177.8125 225.921875 178.757812 C 224.277344 180.675781 223.363281 183.222656 223.5625 185.945312 C 223.761719 188.667969 225.039062 191.054688 226.945312 192.707031 C 228.851562 194.359375 231.382812 195.28125 234.085938 195.082031 C 236.792969 194.878906 239.160156 193.59375 240.804688 191.675781 C 242.445312 189.757812 243.363281 187.210938 243.160156 184.484375 C 242.960938 181.761719 241.683594 179.378906 239.777344 177.726562 C 238.542969 176.652344 237.042969 175.886719 235.398438 175.539062 C 234.074219 170.066406 231.808594 164.707031 230.113281 161.542969 C 223.269531 148.789062 213.675781 121.261719 202.988281 110.394531 C 187.292969 94.441406 178.355469 113.34375 178.355469 113.34375 Z M 162.957031 159.230469 C 164.046875 159.148438 165.066406 159.523438 165.835938 160.1875 C 166.601562 160.855469 167.117188 161.816406 167.199219 162.914062 C 167.28125 164.015625 166.910156 165.042969 166.25 165.816406 C 165.585938 166.585938 164.628906 167.105469 163.539062 167.1875 C 162.445312 167.269531 161.425781 166.898438 160.660156 166.230469 C 159.890625 165.5625 159.375 164.601562 159.296875 163.503906 C 159.214844 162.402344 159.582031 161.375 160.246094 160.605469 C 160.90625 159.832031 161.863281 159.3125 162.957031 159.230469 Z M 230.773438 188.234375 C 230.003906 187.570312 229.488281 186.609375 229.410156 185.507812 C 229.328125 184.410156 229.699219 183.382812 230.359375 182.609375 C 231.023438 181.835938 231.976562 181.316406 233.070312 181.238281 C 234.160156 181.15625 235.183594 181.527344 235.949219 182.195312 C 236.71875 182.859375 237.234375 183.820312 237.3125 184.921875 C 237.394531 186.019531 237.023438 187.046875 236.363281 187.820312 C 235.699219 188.59375 234.746094 189.113281 233.652344 189.191406 C 232.5625 189.273438 231.539062 188.902344 230.773438 188.234375 Z M 230.773438 188.234375 " fill-opacity="1" fill-rule="evenodd"/></g><path fill="#5ce1e6" d="M 49.003906 243.238281 L 330.527344 243.238281 L 330.527344 246.207031 L 49.003906 246.207031 Z M 49.003906 243.238281 " fill-opacity="1" fill-rule="nonzero"/><g fill="#5ce1e6" fill-opacity="1"><g transform="translate(49.003127, 241.453286)"><g><path d="M 10.328125 0.09375 C 9.816406 0.03125 8.515625 0 6.421875 0 L 5.90625 0 L 5.90625 -17.515625 L 2.765625 -17.515625 C 1.835938 -17.515625 1.289062 -17.46875 1.125 -17.375 C 0.957031 -17.28125 0.828125 -17.195312 0.734375 -17.125 L 0.6875 -17.140625 L 0.6875 -21.1875 L 0.734375 -21.234375 C 1.078125 -21.117188 2.015625 -21.0625 3.546875 -21.0625 L 13.484375 -21.0625 C 14.410156 -21.0625 14.957031 -21.109375 15.125 -21.203125 C 15.289062 -21.296875 15.421875 -21.382812 15.515625 -21.46875 L 15.5625 -21.453125 L 15.5625 -17.390625 L 15.515625 -17.34375 C 15.171875 -17.457031 14.234375 -17.515625 12.703125 -17.515625 L 10.328125 -17.515625 Z M 10.328125 0.09375 "/></g></g></g><g fill="#5ce1e6" fill-opacity="1"><g transform="translate(69.798785, 241.453286)"><g><path d="M 9.53125 -8.1875 C 9.21875 -8.164062 8.878906 -8.15625 8.515625 -8.15625 C 8.160156 -8.15625 7.628906 -8.179688 6.921875 -8.234375 L 6.921875 0 L 2.71875 0 L 2.71875 -21.171875 C 4.195312 -21.367188 6.015625 -21.46875 8.171875 -21.46875 C 11.109375 -21.46875 13.296875 -20.925781 14.734375 -19.84375 C 16.179688 -18.757812 16.90625 -17.085938 16.90625 -14.828125 C 16.90625 -13.078125 16.242188 -11.578125 14.921875 -10.328125 C 14.484375 -9.921875 13.988281 -9.570312 13.4375 -9.28125 L 16.65625 -2.46875 C 17.289062 -1.0625 17.78125 -0.226562 18.125 0.03125 L 18.046875 0.109375 C 17.015625 -0.0546875 15.398438 -0.0507812 13.203125 0.125 Z M 8.46875 -17.71875 C 7.9375 -17.71875 7.421875 -17.691406 6.921875 -17.640625 L 6.921875 -11.59375 C 7.441406 -11.519531 8.046875 -11.484375 8.734375 -11.484375 C 9.429688 -11.484375 10.019531 -11.539062 10.5 -11.65625 C 10.976562 -11.78125 11.390625 -11.972656 11.734375 -12.234375 C 12.484375 -12.785156 12.859375 -13.617188 12.859375 -14.734375 C 12.859375 -15.859375 12.46875 -16.648438 11.6875 -17.109375 C 10.957031 -17.515625 9.882812 -17.71875 8.46875 -17.71875 Z M 8.46875 -17.71875 "/></g></g></g><g fill="#5ce1e6" fill-opacity="1"><g transform="translate(93.239889, 241.453286)"><g><path d="M 13.3125 -3.796875 C 13.96875 -3.796875 14.425781 -3.859375 14.6875 -3.984375 L 14.75 -3.96875 L 14.59375 0 L 2.71875 0 L 2.71875 -21.171875 C 3.007812 -21.148438 3.328125 -21.132812 3.671875 -21.125 L 4.78125 -21.09375 C 5.519531 -21.070312 6.320312 -21.0625 7.1875 -21.0625 C 9.601562 -21.0625 11.992188 -21.101562 14.359375 -21.1875 C 14.242188 -20.257812 14.1875 -19.019531 14.1875 -17.46875 C 14.1875 -17.300781 14.195312 -17.175781 14.21875 -17.09375 L 14.1875 -17.046875 C 13.644531 -17.203125 12.863281 -17.28125 11.84375 -17.28125 L 6.859375 -17.28125 L 6.859375 -13.234375 L 10.609375 -13.234375 C 11.773438 -13.234375 12.472656 -13.269531 12.703125 -13.34375 L 12.75 -9.421875 C 12.238281 -9.472656 11.582031 -9.5 10.78125 -9.5 L 6.859375 -9.5 L 6.859375 -3.796875 Z M 13.3125 -3.796875 "/></g></g></g><g fill="#5ce1e6" fill-opacity="1"><g transform="translate(114.035549, 241.453286)"><g><path d="M 2.859375 0 C 2.929688 -0.351562 2.96875 -0.742188 2.96875 -1.171875 L 2.96875 -21.0625 L 6.125 -21.0625 L 14.53125 -7.859375 L 14.53125 -19.984375 C 14.53125 -20.566406 14.472656 -20.925781 14.359375 -21.0625 L 18.640625 -21.0625 C 18.585938 -20.644531 18.5625 -20.179688 18.5625 -19.671875 L 18.5625 0 L 15.265625 0 L 7 -12.6875 L 7 0 Z M 2.859375 0 "/></g></g></g><g fill="#5ce1e6" fill-opacity="1"><g transform="translate(140.106249, 241.453286)"><g><path d="M 7.859375 0.390625 C 6.148438 0.390625 4.539062 0.253906 3.03125 -0.015625 L 3.03125 -21.203125 C 4.414062 -21.378906 6.03125 -21.46875 7.875 -21.46875 C 9.71875 -21.46875 11.382812 -21.210938 12.875 -20.703125 C 14.375 -20.203125 15.625 -19.488281 16.625 -18.5625 C 18.65625 -16.707031 19.671875 -14.101562 19.671875 -10.75 C 19.671875 -7 18.539062 -4.15625 16.28125 -2.21875 C 14.25 -0.476562 11.441406 0.390625 7.859375 0.390625 Z M 7.140625 -3.46875 C 7.828125 -3.34375 8.515625 -3.28125 9.203125 -3.28125 C 9.890625 -3.28125 10.628906 -3.414062 11.421875 -3.6875 C 12.210938 -3.957031 12.898438 -4.375 13.484375 -4.9375 C 14.722656 -6.144531 15.34375 -7.898438 15.34375 -10.203125 C 15.34375 -13.984375 13.96875 -16.304688 11.21875 -17.171875 C 10.3125 -17.453125 9.257812 -17.59375 8.0625 -17.59375 L 7.640625 -17.59375 C 7.472656 -17.59375 7.304688 -17.585938 7.140625 -17.578125 Z M 7.140625 -3.46875 "/></g></g></g><g fill="#5ce1e6" fill-opacity="1"><g transform="translate(166.256149, 241.453286)"><g><path d="M 7.140625 0 C 7.273438 -0.414062 7.34375 -1.375 7.34375 -2.875 L 7.34375 -7.28125 C 5.519531 -11.300781 4.351562 -13.8125 3.84375 -14.8125 C 3.34375 -15.8125 2.914062 -16.601562 2.5625 -17.1875 C 1.46875 -19.039062 0.804688 -20.101562 0.578125 -20.375 C 0.347656 -20.65625 0.117188 -20.882812 -0.109375 -21.0625 L 5.359375 -21.0625 C 5.472656 -20.851562 5.628906 -20.539062 5.828125 -20.125 L 9.65625 -12.03125 C 9.84375 -12.476562 10.054688 -12.976562 10.296875 -13.53125 C 12.597656 -18.476562 13.765625 -20.988281 13.796875 -21.0625 L 19.015625 -21.0625 C 18.484375 -20.632812 17.828125 -19.726562 17.046875 -18.34375 C 16.796875 -17.925781 16.550781 -17.457031 16.3125 -16.9375 L 12.734375 -9.46875 C 12.328125 -8.570312 11.984375 -7.765625 11.703125 -7.046875 L 11.703125 -2.5 C 11.703125 -1.445312 11.765625 -0.613281 11.890625 0 Z M 7.140625 0 "/></g></g></g><g fill="#5ce1e6" fill-opacity="1"><g transform="translate(189.69725, 241.453286)"><g><path d="M 10.328125 0.09375 C 9.816406 0.03125 8.515625 0 6.421875 0 L 5.90625 0 L 5.90625 -17.515625 L 2.765625 -17.515625 C 1.835938 -17.515625 1.289062 -17.46875 1.125 -17.375 C 0.957031 -17.28125 0.828125 -17.195312 0.734375 -17.125 L 0.6875 -17.140625 L 0.6875 -21.1875 L 0.734375 -21.234375 C 1.078125 -21.117188 2.015625 -21.0625 3.546875 -21.0625 L 13.484375 -21.0625 C 14.410156 -21.0625 14.957031 -21.109375 15.125 -21.203125 C 15.289062 -21.296875 15.421875 -21.382812 15.515625 -21.46875 L 15.5625 -21.453125 L 15.5625 -17.390625 L 15.515625 -17.34375 C 15.171875 -17.457031 14.234375 -17.515625 12.703125 -17.515625 L 10.328125 -17.515625 Z M 10.328125 0.09375 "/></g></g></g><g fill="#5ce1e6" fill-opacity="1"><g transform="translate(210.492916, 241.453286)"><g><path d="M 7 0.09375 C 5.988281 0.03125 4.785156 0 3.390625 0 L 2.875 0 L 2.875 -21.140625 C 3.53125 -21.085938 4 -21.0625 4.28125 -21.0625 L 4.921875 -21.0625 C 5.753906 -21.0625 6.445312 -21.101562 7 -21.1875 L 7 -12.75 L 14.4375 -12.75 L 14.4375 -21.140625 C 15.320312 -21.085938 16.175781 -21.0625 17 -21.0625 C 17.832031 -21.0625 18.351562 -21.101562 18.5625 -21.1875 L 18.5625 0.09375 C 18.050781 0.03125 17.046875 0 15.546875 0 L 14.4375 0 L 14.4375 -8.953125 L 7 -8.953125 Z M 7 0.09375 "/></g></g></g><g fill="#5ce1e6" fill-opacity="1"><g transform="translate(236.642825, 241.453286)"><g><path d="M 9.53125 -8.1875 C 9.21875 -8.164062 8.878906 -8.15625 8.515625 -8.15625 C 8.160156 -8.15625 7.628906 -8.179688 6.921875 -8.234375 L 6.921875 0 L 2.71875 0 L 2.71875 -21.171875 C 4.195312 -21.367188 6.015625 -21.46875 8.171875 -21.46875 C 11.109375 -21.46875 13.296875 -20.925781 14.734375 -19.84375 C 16.179688 -18.757812 16.90625 -17.085938 16.90625 -14.828125 C 16.90625 -13.078125 16.242188 -11.578125 14.921875 -10.328125 C 14.484375 -9.921875 13.988281 -9.570312 13.4375 -9.28125 L 16.65625 -2.46875 C 17.289062 -1.0625 17.78125 -0.226562 18.125 0.03125 L 18.046875 0.109375 C 17.015625 -0.0546875 15.398438 -0.0507812 13.203125 0.125 Z M 8.46875 -17.71875 C 7.9375 -17.71875 7.421875 -17.691406 6.921875 -17.640625 L 6.921875 -11.59375 C 7.441406 -11.519531 8.046875 -11.484375 8.734375 -11.484375 C 9.429688 -11.484375 10.019531 -11.539062 10.5 -11.65625 C 10.976562 -11.78125 11.390625 -11.972656 11.734375 -12.234375 C 12.484375 -12.785156 12.859375 -13.617188 12.859375 -14.734375 C 12.859375 -15.859375 12.46875 -16.648438 11.6875 -17.109375 C 10.957031 -17.515625 9.882812 -17.71875 8.46875 -17.71875 Z M 8.46875 -17.71875 "/></g></g></g><g fill="#5ce1e6" fill-opacity="1"><g transform="translate(260.083926, 241.453286)"><g><path d="M 13.3125 -3.796875 C 13.96875 -3.796875 14.425781 -3.859375 14.6875 -3.984375 L 14.75 -3.96875 L 14.59375 0 L 2.71875 0 L 2.71875 -21.171875 C 3.007812 -21.148438 3.328125 -21.132812 3.671875 -21.125 L 4.78125 -21.09375 C 5.519531 -21.070312 6.320312 -21.0625 7.1875 -21.0625 C 9.601562 -21.0625 11.992188 -21.101562 14.359375 -21.1875 C 14.242188 -20.257812 14.1875 -19.019531 14.1875 -17.46875 C 14.1875 -17.300781 14.195312 -17.175781 14.21875 -17.09375 L 14.1875 -17.046875 C 13.644531 -17.203125 12.863281 -17.28125 11.84375 -17.28125 L 6.859375 -17.28125 L 6.859375 -13.234375 L 10.609375 -13.234375 C 11.773438 -13.234375 12.472656 -13.269531 12.703125 -13.34375 L 12.75 -9.421875 C 12.238281 -9.472656 11.582031 -9.5 10.78125 -9.5 L 6.859375 -9.5 L 6.859375 -3.796875 Z M 13.3125 -3.796875 "/></g></g></g><g fill="#5ce1e6" fill-opacity="1"><g transform="translate(280.879582, 241.453286)"><g><path d="M 4.265625 0.125 C 3.359375 0.0390625 2.296875 0 1.078125 0 L -0.171875 0 L 6.71875 -19.3125 C 7.019531 -20.175781 7.171875 -20.675781 7.171875 -20.8125 C 7.171875 -20.957031 7.164062 -21.046875 7.15625 -21.078125 L 7.171875 -21.109375 C 7.859375 -21.078125 8.585938 -21.0625 9.359375 -21.0625 C 9.992188 -21.0625 10.753906 -21.070312 11.640625 -21.09375 L 11.65625 -21.0625 C 11.632812 -21.019531 11.625 -20.960938 11.625 -20.890625 C 11.625 -20.691406 11.78125 -20.160156 12.09375 -19.296875 L 19.140625 0.046875 C 18.921875 0.0351562 18.671875 0.03125 18.390625 0.03125 C 18.390625 0.03125 18.113281 0.0195312 17.5625 0 C 17.300781 0 17.066406 0 16.859375 0 L 14.390625 0 L 12.90625 -4.5625 L 5.75 -4.5625 Z M 11.671875 -8.359375 L 9.28125 -15.734375 L 6.953125 -8.359375 Z M 11.671875 -8.359375 "/></g></g></g><g fill="#5ce1e6" fill-opacity="1"><g transform="translate(304.384047, 241.453286)"><g><path d="M 7.859375 0.390625 C 6.148438 0.390625 4.539062 0.253906 3.03125 -0.015625 L 3.03125 -21.203125 C 4.414062 -21.378906 6.03125 -21.46875 7.875 -21.46875 C 9.71875 -21.46875 11.382812 -21.210938 12.875 -20.703125 C 14.375 -20.203125 15.625 -19.488281 16.625 -18.5625 C 18.65625 -16.707031 19.671875 -14.101562 19.671875 -10.75 C 19.671875 -7 18.539062 -4.15625 16.28125 -2.21875 C 14.25 -0.476562 11.441406 0.390625 7.859375 0.390625 Z M 7.140625 -3.46875 C 7.828125 -3.34375 8.515625 -3.28125 9.203125 -3.28125 C 9.890625 -3.28125 10.628906 -3.414062 11.421875 -3.6875 C 12.210938 -3.957031 12.898438 -4.375 13.484375 -4.9375 C 14.722656 -6.144531 15.34375 -7.898438 15.34375 -10.203125 C 15.34375 -13.984375 13.96875 -16.304688 11.21875 -17.171875 C 10.3125 -17.453125 9.257812 -17.59375 8.0625 -17.59375 L 7.640625 -17.59375 C 7.472656 -17.59375 7.304688 -17.585938 7.140625 -17.578125 Z M 7.140625 -3.46875 "/></g></g></g></svg>